# xmcd
#
# Track frame offsets:
#	150
#	42072
#	65297
#	82037
#	103365
#	124767
#	147515
#	173287
#	206295
#	236125
#	260340
#	279312
#	302725
#	323327
#
# Disc length: 4624 seconds
#
# Revision: 0
# Processed by: cddbd v1.4PL0 Copyright (c) Steve Scherf et al.
# Submitted via: audiograbber 1.80.04
#
DISCID=bb120e0e
DTITLE=LUTHER VANDROSS - THE BEST OF YOUR SECRET LOVE CD1
DYEAR=1900
DGENRE=
TTITLE0=The Best of Love - CD 2 - 01 - Superstar - Until You Come Back To Me
TTITLE1=The Best of Love - CD 2 - 02 - Stop To Love
TTITLE2=The Best of Love - CD 2 - 03 - So Amazing
TTITLE3=The Best of Love - CD 2 - 04 - There Nothing Better Than Love
TTITLE4=The Best of Love - CD 2 - 05 - Give Me The Reason
TTITLE5=The Best of Love - CD 2 - 06 - Any Love
TTITLE6=The Best of Love - CD 2 - 07 - I Really Didn't Mean It
TTITLE7=The Best of Love - CD 2 - 08 - Love Won't Let Me Wait
TTITLE8=The Best of Love - CD 2 - 09 - Treat You Right
TTITLE9=The Best of Love - CD 2 - 10 - Here And Now
TTITLE10=Your Secret Love - 01 - Your Secret Love
TTITLE11=Your Secret Love - 02 - Love Don't Hurt You Anymore
TTITLE12=Your Secret Love - 03 - It's Hard For Me To Say
TTITLE13=Your Secret Love - 04 - Crazy Love
EXTD=
EXTT0=
EXTT1=
EXTT2=
EXTT3=
EXTT4=
EXTT5=
EXTT6=
EXTT7=
EXTT8=
EXTT9=
EXTT10=
EXTT11=
EXTT12=
EXTT13=
PLAYORDER=
